<svg xmlns="http://www.w3.org/2000/svg" version="1.1" width="2000"
     height="1500" viewBox="0 0 2000 1500">
    <rect width="2000" height="1500" fill="#ffffff"></rect>
    <g transform="matrix(0.75,0,0,0.75,249.090909090909,282.7536437246963)">
        <svg viewBox="0 0 396 247" data-background-color="#ffffff" preserveAspectRatio="xMidYMid meet" height="1247"
             width="2000" xmlns="http://www.w3.org/2000/svg">
            <g id="tight-bounds" transform="matrix(1,0,0,1,0.2400000000000091,-0.09999999999999432)">
                <svg viewBox="0 0 395.52 247.2" height="247.2" width="395.52">
                    <g>
                        <svg></svg>
                    </g>
                    <g>
                        <svg viewBox="0 0 395.52 247.2" height="247.2" width="395.52">
                            <g transform="matrix(1,0,0,1,75.54432,90.23373397072754)">
                                <svg viewBox="0 0 244.43135999999998 66.73253205854489" height="66.73253205854489"
                                     width="244.43135999999998">
                                    <g>
                                        <svg viewBox="0 0 244.43135999999998 66.73253205854489"
                                             height="66.73253205854489" width="244.43135999999998">
                                            <g>
                                                <svg viewBox="0 0 366.60367755206937 100.08695964799249"
                                                     height="66.73253205854489" width="244.43135999999998">
                                                    <g transform="matrix(1,0,0,1,122.17231755206942,1.762264364279666)">
                                                        <svg viewBox="0 0 244.43135999999998 96.56243091943315"
                                                             height="96.56243091943315" width="244.43135999999998">
                                                            <g id="textblocktransform">
                                                                <svg viewBox="0 0 244.43135999999998 96.56243091943315"
                                                                     height="96.56243091943315"
                                                                     width="244.43135999999998" id="textblock">
                                                                    <g>
                                                                        <svg viewBox="0 0 244.43135999999998 60.3131731910637"
                                                                             height="60.3131731910637"
                                                                             width="244.43135999999998">
                                                                            <g transform="matrix(1,0,0,1,0,0)">
                                                                                <svg width="244.43135999999998"
                                                                                     viewBox="3.200000047683716 -36.54999923706055 149.94000244140625 37"
                                                                                     height="60.3131731910637"
                                                                                     data-palette-color="#8d021f">
                                                                                    <path d="M31.2-30.15L31.2-30.15Q31.2-28.6 30.18-27.8 29.15-27 27.7-27 26.25-27 25.2-27.55L25.2-27.55Q25.25-28 25.25-28.45L25.25-28.45Q25.25-30.25 23.93-31.63 22.6-33 19.5-33L19.5-33Q15.2-33 12.03-29.13 8.85-25.25 8.85-18.28 8.85-11.3 11.88-7.8 14.9-4.3 20.25-4.3L20.25-4.3Q23.2-4.3 25.83-5.58 28.45-6.85 30.05-8.6L30.05-8.6Q31.25-8.25 31.25-6.55L31.25-6.55Q31.25-4.35 27.58-1.95 23.9 0.45 18.85 0.45L18.85 0.45Q11.85 0.45 7.53-4.38 3.2-9.2 3.2-17.63 3.2-26.05 8.03-31.3 12.85-36.55 20.35-36.55L20.35-36.55Q24.9-36.55 28.05-34.68 31.2-32.8 31.2-30.15ZM44.4-7.15Q45.9-7.15 46.75-6.28 47.6-5.4 47.6-3.9 47.6-2.4 46.3-1.07 45 0.25 43.5 0.25 42 0.25 41.12-0.65 40.25-1.55 40.25-3.05 40.25-4.55 41.57-5.85 42.9-7.15 44.4-7.15ZM96.7-33L96.7-33Q96.7-34.6 95.65-35.45L95.65-35.45Q96.84-36.55 98.5-36.55L98.5-36.55Q101.8-36.55 101.8-33.3L101.8-33.3Q101.8-32.75 101.5-31.15L101.5-31.15 94.09-3.6Q93.09 0.45 89.77 0.45 86.45 0.45 85.55-3.6L85.55-3.6 78.8-29.05 71.95-3.6Q71.45-1.4 70.4-0.48 69.34 0.45 67.59 0.45 65.84 0.45 64.87-0.43 63.9-1.3 63.35-3.6L63.35-3.6 56.05-31.45Q55.4-33.95 53.95-34.6L53.95-34.6Q55.2-36.55 57.5-36.55L57.5-36.55Q59-36.55 59.95-35.58 60.9-34.6 61.4-32.2L61.4-32.2 67.84-5.1 75.3-33.4Q75.8-35.15 76.72-35.85 77.65-36.55 79.15-36.55L79.15-36.55Q82.25-36.55 83-33.4L83-33.4 90.09-4.95 96.5-31.35Q96.7-32.25 96.7-33ZM112.49-7.15Q113.99-7.15 114.84-6.28 115.69-5.4 115.69-3.9 115.69-2.4 114.39-1.07 113.09 0.25 111.59 0.25 110.09 0.25 109.22-0.65 108.34-1.55 108.34-3.05 108.34-4.55 109.67-5.85 110.99-7.15 112.49-7.15ZM153.14-2.9Q152.84-1.45 151.81-0.5 150.79 0.45 149.39 0.45 147.99 0.45 146.72-0.48 145.44-1.4 143.14-3.8L143.14-3.8 131.44-16.05 131.44-3.7Q131.44-1.9 132.79-1.3L132.79-1.3Q131.59 0.45 129.59 0.45L129.59 0.45Q126.19 0.45 126.19-3.75L126.19-3.75 126.19-32.45Q126.19-34.2 124.84-34.8L124.84-34.8Q125.99-36.55 127.99-36.55L127.99-36.55Q131.44-36.55 131.44-32.4L131.44-32.4 131.44-20.05 143.59-33.2Q145.34-35.1 146.51-35.83 147.69-36.55 149.09-36.55 150.49-36.55 151.41-35.63 152.34-34.7 152.64-33.35L152.64-33.35Q150.79-32.95 148.84-31.1L148.84-31.1 136.04-18.65 149.14-5.15Q151.04-3.1 153.14-2.9L153.14-2.9Z"
                                                                                          opacity="1"
                                                                                          transform="matrix(1,0,0,1,0,0)"
                                                                                          fill="#8d021f"
                                                                                          class="undefined-text-0"
                                                                                          id="text-0"></path>
                                                                                </svg>
                                                                            </g>
                                                                        </svg>
                                                                    </g>
                                                                    <g transform="matrix(1,0,0,1,0,74.55166586531725)">
                                                                        <svg viewBox="0 0 244.43135999999998 22.010765054115897"
                                                                             height="22.010765054115897"
                                                                             width="244.43135999999998">
                                                                            <g transform="matrix(1,0,0,1,0,0)">
                                                                                <svg width="244.43135999999998"
                                                                                     viewBox="6.710000038146973 -35.060001373291016 394.75 35.55000305175781"
                                                                                     height="22.010765054115897"
                                                                                     data-palette-color="#8d021f">
                                                                                    <path d="M24.07-34.94L24.07-34.94Q28.81-34.94 33.5-33.08L33.5-33.08 32.23-29.64Q27.49-31.27 23.95-31.27L23.95-31.27Q21.02-31.27 18.52-30.11 16.02-28.96 14.37-27.01 12.72-25.07 11.79-22.57 10.86-20.07 10.86-17.33L10.86-17.33Q10.86-14.5 11.85-11.95 12.84-9.4 14.62-7.48 16.41-5.57 19.06-4.44 21.7-3.32 24.85-3.32L24.85-3.32Q28.61-3.32 32.69-4.79L32.69-4.79 33.96-1.71Q28.86 0.49 23.8 0.49L23.8 0.49Q20.68 0.49 17.94-0.42 15.21-1.32 13.17-2.94 11.13-4.57 9.67-6.79 8.2-9.01 7.46-11.68 6.71-14.36 6.71-17.31L6.71-17.31Q6.71-22.31 8.8-26.29 10.89-30.27 14.87-32.6 18.85-34.94 24.07-34.94ZM57.01-35.06L57.01-35.06Q60.45-35.06 63.44-33.85 66.43-32.64 68.62-30.44 70.8-28.25 72.05-24.96 73.29-21.68 73.29-17.75L73.29-17.75Q73.29-12.43 71.18-8.29 69.07-4.15 65.32-1.89 61.57 0.37 56.84 0.37L56.84 0.37Q53.71 0.37 50.85-0.74 48-1.86 45.7-3.98 43.41-6.1 42.04-9.53 40.67-12.96 40.67-17.26L40.67-17.26Q40.67-21.29 41.92-24.63 43.16-27.98 45.34-30.26 47.51-32.54 50.51-33.8 53.52-35.06 57.01-35.06ZM56.79-31.42L56.79-31.42Q54.57-31.42 52.51-30.59 50.46-29.76 48.74-28.16 47.02-26.56 45.98-23.86 44.95-21.17 44.95-17.77L44.95-17.77Q44.95-14.53 45.9-11.78 46.85-9.03 48.49-7.18 50.12-5.32 52.36-4.3 54.59-3.27 57.15-3.27L57.15-3.27Q58.89-3.27 60.56-3.78 62.23-4.3 63.77-5.41 65.31-6.52 66.47-8.13 67.63-9.74 68.32-12.11 69.02-14.48 69.02-17.31L69.02-17.31Q69.02-20.19 68.29-22.58 67.55-24.98 66.35-26.59 65.14-28.2 63.54-29.31 61.94-30.42 60.24-30.92 58.54-31.42 56.79-31.42ZM94.56-31.03L87.82-31.03 87.82-3.66 92.87-3.66Q93.97-3.66 94.69-3.69 95.41-3.71 96.64-3.83 97.88-3.96 98.77-4.2 99.66-4.44 100.79-4.91 101.93-5.37 102.81-6.03 103.69-6.69 104.57-7.71 105.44-8.74 106.1-10.03L106.1-10.03Q107.71-13.13 107.71-17.58L107.71-17.58Q107.71-20.65 106.82-23.13 105.93-25.61 104.46-27.16 102.98-28.71 101.31-29.61 99.63-30.52 97.8-30.83L97.8-30.83Q96.73-31.03 94.56-31.03L94.56-31.03ZM83.67-34.69L94.41-34.69Q97.78-34.69 100.54-34.02 103.3-33.35 105.16-32.13 107.03-30.91 108.37-29.37 109.72-27.83 110.46-25.94 111.21-24.05 111.55-22.22 111.89-20.39 111.89-18.41L111.89-18.41Q111.89-16.14 111.55-14.04 111.21-11.94 110.36-9.77 109.52-7.59 108.22-5.87 106.91-4.15 104.83-2.77 102.76-1.39 100.12-0.73L100.12-0.73Q98.75-0.39 97.07-0.22 95.39-0.05 94.29-0.02 93.19 0 91.19 0L91.19 0 83.67 0 83.67-34.69ZM143.21 0L122.88 0 122.88-34.69 143.21-34.69 143.21-31.03 127.03-31.03 127.03-19.7 141.87-19.7 141.87-16.04 127.03-16.04 127.03-3.66 143.21-3.66 143.21 0ZM175.02 0L164.21-34.69 168.6-34.69 177.32-5.54 186.11-34.69 190.28-34.69 199.32-5.54 207.79-34.69 212.18-34.69 201.49 0 197.07 0 187.96-28.98 179.44 0 175.02 0ZM221.46 0L221.46-34.69 225.61-34.69 225.61 0 221.46 0ZM233.54-31.03L233.54-34.69 260.89-34.69 260.89-31.03 249.29-31.03 249.29 0 245.14 0 245.14-31.03 233.54-31.03ZM290.8-19.73L290.8-34.69 294.95-34.69 294.95 0 290.8 0 290.8-16.06 272.24-16.06 272.24 0 268.09 0 268.09-34.69 272.24-34.69 272.24-19.73 290.8-19.73ZM320.83 0L320.83-34.69 324.98-34.69 324.98 0 320.83 0ZM325.56-17.8L340.26-34.69 345.46-34.69 330.79-18.14 346.39 0 341.04 0 325.56-17.8ZM369.92-35.06L369.92-35.06Q373.36-35.06 376.35-33.85 379.35-32.64 381.53-30.44 383.72-28.25 384.96-24.96 386.21-21.68 386.21-17.75L386.21-17.75Q386.21-12.43 384.09-8.29 381.98-4.15 378.23-1.89 374.49 0.37 369.75 0.37L369.75 0.37Q366.63 0.37 363.77-0.74 360.91-1.86 358.62-3.98 356.32-6.1 354.96-9.53 353.59-12.96 353.59-17.26L353.59-17.26Q353.59-21.29 354.83-24.63 356.08-27.98 358.25-30.26 360.42-32.54 363.43-33.8 366.43-35.06 369.92-35.06ZM369.7-31.42L369.7-31.42Q367.48-31.42 365.43-30.59 363.38-29.76 361.66-28.16 359.94-26.56 358.9-23.86 357.86-21.17 357.86-17.77L357.86-17.77Q357.86-14.53 358.81-11.78 359.77-9.03 361.4-7.18 363.04-5.32 365.27-4.3 367.5-3.27 370.07-3.27L370.07-3.27Q371.8-3.27 373.47-3.78 375.15-4.3 376.68-5.41 378.22-6.52 379.38-8.13 380.54-9.74 381.24-12.11 381.93-14.48 381.93-17.31L381.93-17.31Q381.93-20.19 381.2-22.58 380.47-24.98 379.26-26.59 378.05-28.2 376.45-29.31 374.85-30.42 373.16-30.92 371.46-31.42 369.7-31.42ZM397.31 0L397.31-34.69 401.46-34.69 401.46 0 397.31 0Z"
                                                                                          opacity="1"
                                                                                          transform="matrix(1,0,0,1,0,0)"
                                                                                          fill="#8d021f"
                                                                                          class="undefined-text-1"
                                                                                          id="text-1"></path>
                                                                                </svg>
                                                                            </g>
                                                                        </svg>
                                                                    </g>
                                                                </svg>
                                                            </g>
                                                        </svg>
                                                    </g>
                                                    <g>
                                                        <svg viewBox="0 0 107.93382487781587 100.08695964799249"
                                                             height="100.08695964799249" width="107.93382487781587">
                                                            <g>
                                                                <svg xmlns="http://www.w3.org/2000/svg" version="1.1"
                                                                     x="0" y="0"
                                                                     viewBox="2.175001621246338 10.600000381469727 85.62500762939453 79.40000915527344"
                                                                     style="enable-background:new 0 0 90 90;"
                                                                     xml:space="preserve" width="107.93382487781587"
                                                                     height="100.08695964799249" class="icon-icon-0"
                                                                     data-fill-palette-color="accent" id="icon-0"><g fill="#8d021f" ><circle cx="35.6" cy="28.1" r="1.6" fill="#8d021f" ></circle><circle
                                                                        cx="45.7" cy="28.1" r="1.6"
                                                                        fill="#8d021f"></circle><path
                                                                        d="M82.8 34.5H53.5c0.5-1.7 0.8-3.6 0.8-5.5 0-8.9-1.1-18.4-13.3-18.4-6 0-13.2 3.2-13.3 18.4 0 2.1 0.4 4.1 1 6-1.7 0.8-2.9 2.5-2.9 4.5v5.9c-4.7 1.8-8.9 5.7-8.9 12.6v4.3h-12c-0.8 0-1.6 0.3-2.1 0.9-0.5 0.7-0.7 1.5-0.6 2.3L6 86.8c0.1 0.5 0.2 0.9 0.5 1.3-0.4 0.1-0.7 0.5-0.7 0.9 0 0.5 0.4 0.9 0.9 1l0 0h0.1 9.1 2 22.5 23.7 9 0.3c0.1 0 0.2 0 0.2-0.1 1.4-0.3 2.5-1.5 2.5-2.9 0-1.6-1.3-3-3-3h-7.7v-6.1h17.4c2.7 0 5-2.2 5-5V39.5C87.8 36.7 85.5 34.5 82.8 34.5zM33.9 20.4c-0.7 1-1.6 1.6-2.3 1.6-0.4 0-0.6-0.1-0.8-0.4 0-0.1-0.1-0.1-0.1-0.1 0.4-1.5 0.9-2.8 1.5-3.9C32.5 18.6 33.1 19.5 33.9 20.4zM36 19.7c-0.1-0.1-0.2-0.2-0.3-0.3-1.1-1.2-1.8-2.5-2-3.9 0.4-0.4 0.8-0.8 1.2-1.1 0.6 1.8 1.9 3.4 3.8 4.6 2.1 1.3 4.6 2 7.3 2 1.8 0 3.7-0.3 5.5-1 0.2 0.6 0.3 1.2 0.4 1.9C47 23.7 41.5 23.4 37.7 21 37 20.6 36.5 20.1 36 19.7zM38.6 12.8c1.7 3.4 5 4.3 8.2 4.3 1.2 0 2.3-0.2 3.4-0.3 0.2 0.4 0.4 0.8 0.6 1.2-4 1.4-8.1 1.1-11.2-0.8-1.6-1.1-2.7-2.5-3-3.9C37.3 13.2 37.9 13 38.6 12.8zM41.1 12.6c3.4 0 5.9 0.8 7.6 2.3-4.7 0.4-6.7-0.7-7.7-2.3C41 12.6 41 12.6 41.1 12.6zM29.9 29c0-1.9 0.1-3.7 0.3-5.2 0.4 0.2 0.9 0.3 1.4 0.3 0.1 0 0.1 0 0.1 0 1.4-0.1 2.7-1 3.7-2.3 0.4 0.3 0.8 0.6 1.3 0.9 2.6 1.6 5.7 2.4 8.9 2.4 2.2 0 4.5-0.4 6.6-1.1 0.1 1.5 0.2 3.2 0.2 5 0.1 1.9-0.2 3.8-0.8 5.5H30.8c0 0 0 0-0.1 0C30.2 32.8 29.9 30.9 29.9 29zM4.2 65.2c-0.1-0.3 0-0.5 0.1-0.6 0.1-0.1 0.3-0.2 0.5-0.2h14.6c0.6 0 1.2 0.5 1.3 1.1l3.8 21.3c0.1 0.3 0 0.5-0.1 0.6-0.1 0.1-0.3 0.2-0.5 0.2h-7.6l2-11.8v-0.2c0-1.6-1.5-2.9-2.7-2.9h-3.9c-1.2 0-2.6 1.2-2.7 2.8l-1.4 8.8L4.2 65.2zM14.1 87.6H9.3c-0.1 0-0.1 0-0.2 0l1.8-11.8v-0.2c0-0.4 0.5-0.8 0.6-0.8h3.9c0.2 0.1 0.6 0.4 0.6 0.8L14.1 87.6zM73.1 86c0.5 0 0.9 0.4 0.9 0.9s-0.4 0.9-0.9 0.9H40.4c-0.5 0-0.9-0.4-0.9-0.9s0.4-0.9 0.9-0.9h7.8 17.2H73.1zM40.4 84c-1.6 0-3 1.3-3 3 0 0.4 0.1 0.7 0.2 1H26.4c0.2-0.5 0.3-1.1 0.2-1.6l-3.8-21.3c-0.2-1.6-1.7-2.8-3.3-2.8h-0.6V58c0-6.1 3.8-9 6.9-10.3v25.2c0 2.8 2.3 5 5 5h17.4V84H40.4zM50.3 83.9l0-27.2c0-1.6 1.5-2.9 2.4-2.9h8.2c1 0 2.4 1.3 2.4 2.9v27.2H50.3zM85.7 72.9c0 1.6-1.3 2.9-2.9 2.9H65.4V56.7c0-2.8-2.5-5-4.5-5h-8.2c-2.1 0-4.5 2.2-4.5 5v19.1H30.8c-1.6 0-2.9-1.3-2.9-2.9V39.5c0-1.6 1.3-2.9 2.9-2.9h52c1.6 0 2.9 1.3 2.9 2.9V72.9z"
                                                                        fill="#8d021f"></path></g></svg>
                                                            </g>
                                                        </svg>
                                                    </g>
                                                </svg>
                                            </g>
                                        </svg>
                                    </g>
                                </svg>
                            </g>
                            <path d="M206.263 84.234L206.263 21.942 2.948 21.942 2.948 225.258 206.263 225.258 206.263 162.966 202.637 162.966 202.637 221.631 6.574 221.631 6.574 25.569 202.637 25.569 202.637 84.234Z"
                                  fill="#8d021f" stroke="transparent"></path>
                        </svg>
                    </g>
                    <defs></defs>
                </svg>
                <rect width="395.52" height="247.2" fill="none" stroke="none" visibility="hidden"></rect>
            </g>
        </svg>
    </g>
</svg>